PathFileType	4	(X/Y/Z)	C:\Users\WrightLab\Desktop\Jo\P1_boxCal14.trc
DataRate	CameraRate	NumFrames	NumMarkers	Units	OrigDataRate	OrigDataStartFrame	OrigNumFrames
100.00	100.00	       24	19	mm	100.00	1	       811
Frame#	Time	Headset_Front			Headset_Back			Headset_Left			Headset_Right			Left_Shoulder			Right_Shoulder			Sternum			C7			Left Elbow			Right Elbow			Left Wrist			Right Wrist			Left ASIS			Right ASIS			S2			Left Knee			Right Knee			Left Ankle			Right Ankle			
		X1	Y1	Z1	X2	Y2	Z2	X3	Y3	Z3	X4	Y4	Z4	X5	Y5	Z5	X6	Y6	Z6	X7	Y7	Z7	X8	Y8	Z8	X9	Y9	Z9	X10	Y10	Z10	X11	Y11	Z11	X12	Y12	Z12	X13	Y13	Z13	X14	Y14	Z14	X15	Y15	Z15	X16	Y16	Z16	X17	Y17	Z17	X18	Y18	Z18	X19	Y19	Z19	

1	0.000	-496.75037	484.14844	2306.70239										-861.32574	527.05334	2220.55664	-335.71896	1032.38440	2298.43896													-532.17139	139.93263	2394.85303	-392.10696	983.29871	2053.88379	-528.75049	1037.25305	1703.69409																			
2	0.010	-498.08603	484.40988	2305.84277										-863.20813	527.90289	2219.74292	-337.23654	1032.34399	2296.21826													-531.99573	140.16776	2394.33984	-393.98798	982.40039	2052.52100	-530.22723	1036.46741	1700.86426																			
3	0.020	-499.81201	484.28900	2303.41895										-865.96082	528.77826	2218.58740	-337.25140	1032.71631	2292.68311													-532.00897	140.19160	2394.25488	-395.69995	981.43805	2049.38232	-531.46936	1036.49023	1699.07727																			
4	0.030	-500.33490	484.11887	2303.30493										-867.99957	529.49353	2218.15112	-338.92459	1032.51428	2290.08447													-531.91138	140.25751	2394.03784	-397.65564	980.45038	2046.32886	-533.80133	1036.28552	1697.86328																			
5	0.040	-501.06836	484.11945	2303.24756										-870.85156	529.92480	2217.25781	-339.28873	1032.65344	2286.78467													-531.91748	140.41852	2393.81055	-399.60336	980.01465	2043.94080	-535.32031	1036.34546	1695.58484																			
6	0.050	-501.67514	484.27396	2302.61450										-872.75269	530.65247	2216.99780	-340.80215	1032.41821	2283.51563													-531.98395	140.43427	2393.73804	-401.28513	979.60321	2041.22400	-536.72144	1035.68091	1692.90930																			
7	0.060	-503.89844	484.70511	2298.21631										-875.33563	531.06329	2215.75928	-342.17838	1033.35132	2280.69653													-531.91577	140.53448	2393.65039	-403.38071	979.04816	2038.11279	-538.83209	1035.45642	1690.26111																			
8	0.070	-504.37253	484.39691	2298.25879										-877.54846	531.46381	2215.32422	-343.12415	1033.07666	2277.37158													-531.81702	140.70789	2393.38452	-405.36411	978.13568	2036.00989	-540.61932	1034.85266	1687.52429																			
9	0.080	-505.44553	484.17355	2296.86450										-879.83099	531.90381	2213.73218	-345.40048	1033.70178	2274.35962													-531.75946	140.91631	2392.95288	-407.38510	977.63354	2032.58167	-542.43738	1034.74500	1685.27209																			
10	0.090	-507.23798	484.88956	2293.31763										-882.44202	532.26172	2213.12866	-346.54828	1034.36157	2272.20093													-531.84430	141.04626	2392.84424	-409.51791	977.07727	2030.81677	-544.79883	1034.63647	1683.11755																			
11	0.100	-508.80423	483.62579	2292.08203										-884.29968	532.89874	2211.68311	-348.19156	1034.29980	2267.88013													-531.86877	141.23773	2392.85205	-411.72977	976.71100	2028.18909	-546.43982	1034.32141	1680.47815																			
12	0.110	-510.36975	483.63306	2290.19897										-887.05823	533.15161	2210.25635	-349.79651	1033.73718	2264.04541													-532.69391	142.52278	2392.81616	-413.93594	976.24335	2024.69971	-549.05701	1034.01025	1677.80750																			
13	0.120	-511.60779	483.72055	2288.46167										-889.13269	533.78436	2209.45776	-351.94940	1034.73230	2262.73071													-532.92957	142.74887	2392.84937	-416.25568	975.84760	2020.98865	-550.81805	1033.13293	1674.31238																			
14	0.130	-512.77393	483.63123	2287.17212										-891.94476	534.15820	2207.38647	-353.71744	1034.65015	2258.54224													-532.99799	142.83653	2392.81079	-418.68091	975.48120	2018.22534	-553.65674	1032.67932	1671.65112																			
15	0.140	-514.82239	483.34180	2285.53076										-893.76886	534.24414	2205.98267	-355.75366	1034.12573	2253.87329													-533.48566	143.49619	2392.52295	-421.13501	975.14856	2015.47009	-555.37378	1032.67102	1668.76563																			
16	0.150	-516.22113	482.16864	2283.82007										-896.88287	534.39203	2204.73169	-357.81323	1034.48022	2250.73633													-533.48425	143.74303	2392.18066	-423.28815	974.72180	2012.51794	-557.92749	1032.00366	1665.75818																			
17	0.160	-518.15729	482.85300	2280.47607										-898.93530	534.70691	2203.13599	-360.26529	1035.01050	2248.72144													-533.45868	144.03522	2391.97485	-426.20950	974.45203	2008.25867	-560.34100	1031.42249	1662.65991																			
18	0.170	-519.78528	482.49466	2279.43726										-901.64783	534.48523	2201.61182	-362.14319	1034.73206	2244.25293													-533.39630	144.33356	2391.59448	-428.72690	974.01282	2004.06934	-562.86041	1031.03479	1659.41846																			
19	0.180	-522.71124	482.68991	2275.89453										-904.11975	534.28680	2199.81372	-364.10614	1033.72253	2239.33545													-533.50916	144.51886	2391.52881	-431.48218	973.79114	2000.43286	-565.20502	1030.48657	1655.96326																			
20	0.190	-523.62231	482.49313	2275.30884										-906.73499	533.65082	2197.51025																-533.60205	144.68159	2391.52466	-434.19443	973.51379	1998.12561	-568.20050	1030.10046	1653.33545																			
21	0.200	-525.13074	481.50150	2273.28540	-369.64044	1033.71716	2231.42041							-909.08905	533.10339	2195.71582																-533.66010	145.00713	2391.10327	-436.89096	972.79297	1993.39185	-570.58417	1029.47461	1649.79028																			
22	0.210	-527.76678	481.76212	2271.35767	-372.71014	1034.14941	2227.75684							-911.76874	532.67462	2193.49536																-533.72192	145.09933	2391.12598	-440.31116	972.57886	1989.54297	-573.67590	1028.78528	1646.45117																			
23	0.220	-529.95709	481.03970	2268.92969	-375.19678	1033.99597	2223.24316							-914.32684	532.45135	2191.39307																-533.77521	145.16635	2391.13281	-443.01633	972.02917	1985.71851	-575.83380	1028.17261	1642.37598																			
24	0.230	-532.57281	480.83051	2266.07373	-377.82672	1033.55896	2219.15625							-917.00049	531.67871	2189.13428	-591.45319	866.92523	2307.32764													-533.96021	145.35191	2391.06201	-446.45926	971.90710	1981.98071																						
